<svg viewBox="0 0 100 32" xmlns="http://www.w3.org/2000/svg" fill="white">
<path d="M12 4C7.58172 4 4 7.58172 4 12V20C4 24.4183 7.58172 28 12 28H18C18.5523 28 19 27.5523 19 27C19 26.4477 18.5523 26 18 26H12C8.68629 26 6 23.3137 6 20V12C6 8.68629 8.68629 6 12 6H18C18.5523 6 19 5.55228 19 5C19 4.44772 18.5523 4 18 4H12ZM27 4C26.4477 4 26 4.44772 26 5V27C26 27.5523 26.4477 28 27 28C27.5523 28 28 27.5523 28 27V5C28 4.44772 27.5523 4 27 4ZM44.205 11.2312C44.5204 10.7601 45.1664 10.6276 45.6457 10.9416C46.125 11.2555 46.2553 11.897 45.94 12.368L39.9535 21.3093C39.6382 21.7803 38.9922 21.9129 38.5128 21.5989L33.4566 18.2831L31.3934 21.3653L38.4842 26.0142C39.8143 26.8861 41.597 26.5057 42.4552 25.2241L49.1916 15.1583L51.2547 12.076C52.1129 10.7944 51.724 9.02598 50.3938 8.15403L43.4357 3.59132C42.9564 3.27735 42.3104 3.40989 41.995 3.88099C41.6796 4.35208 41.8101 4.9935 42.2893 5.30747L48.2758 9.23236C48.5912 9.54633 48.7217 10.1878 48.4063 10.6588L46.3432 13.741L44.205 11.2312Z"/>
</svg>
