<svg viewBox="0 0 44 44" xmlns="http://www.w3.org/2000/svg" fill="white">
<path d="M21.9272 0.00976562C9.40723 0.00976562 -0.742773 10.1598 -0.742773 22.6798C-0.742773 35.1998 9.40723 45.3498 21.9272 45.3498C34.4472 45.3498 44.5972 35.1998 44.5972 22.6798C44.5972 10.1598 34.4472 0.00976562 21.9272 0.00976562ZM31.1472 24.3198C31.1472 25.5998 30.1272 26.6298 28.8572 26.6298H25.0672V30.4198C25.0672 31.6998 24.0372 32.7298 22.7672 32.7298C21.4972 32.7298 20.4672 31.6998 20.4672 30.4198V26.6298H16.6772C15.3972 26.6298 14.3772 25.5998 14.3772 24.3198C14.3772 23.0498 15.3972 22.0198 16.6772 22.0198H20.4672V18.2298C20.4672 16.9498 21.4972 15.9198 22.7672 15.9198C24.0372 15.9198 25.0672 16.9498 25.0672 18.2298V22.0198H28.8572C30.1272 22.0198 31.1472 23.0498 31.1472 24.3198Z"/>
</svg>
